<?xml version="1.0" encoding="utf-8"?>
<!-- Generator: Adobe Illustrator 21.0.0, SVG Export Plug-In . SVG Version: 6.00 Build 0)  -->
<svg version="1.1" id="Layer_1" xmlns="http://www.w3.org/2000/svg"  x="0px" y="0px"
	 viewBox="0 0 24 24" style="enable-background:new 0 0 24 24;" xml:space="preserve">
<style type="text/css">
	.st0{fill:#08743B;}
	.st1{fill:#FFFFFF;}
</style>
<g>
	<polyline class="st0" points="24,22.9 0,22.9 0,0 24,0 24,22.9 	"/>
	<polyline class="st1" points="16.6,17.4 12.5,17.4 9.8,13.5 6.9,17.4 2.9,17.4 7.9,11.1 3.9,5.6 7.9,5.6 9.8,8.6 11.8,5.6 16,5.6 
		11.8,11.1 16.6,17.4 	"/>
</g>
<g>
	<path class="st1" d="M21.3,13.5l0.1,0.2c-0.3,1.1-0.7,2.3-1.4,3.7h-1.7c0.3-1.4,0.6-2.7,0.8-3.9H21.3z M18.7,7.8
		c0-0.4,0.1-0.8,0.4-1c0.2-0.2,0.6-0.3,1-0.3c0.4,0,0.8,0.1,1,0.3c0.2,0.2,0.4,0.6,0.4,1c0,0.4-0.1,0.7-0.4,1
		c-0.2,0.2-0.6,0.3-1,0.3c-0.4,0-0.8-0.1-1-0.3C18.8,8.6,18.7,8.2,18.7,7.8z"/>
</g>
</svg>
