<svg data-name="Calque 2" xmlns="http://www.w3.org/2000/svg" width="24" height="24"  fill="#FFFFFF"><rect id="backgroundrect" width="100%" height="100%" x="0" y="0" fill="none" stroke="none"/><title>Plan de travail 1</title><g class="currentLayer" style=""><title>Layer 1</title><path d="M21.50567054748535,2.2857139483094215 H2.0770976543426514 a2.1587302684783936,2.1587302684783936 0 0 0 -2.1587302684783936,2.1587302684783936 V19.555555380880833 a2.1587302684783936,2.1587302684783936 0 0 0 2.1587302684783936,2.1587302684783936 H21.50567054748535 a2.1587302684783936,2.1587302684783936 0 0 0 2.1587302684783936,-2.1587302684783936 V4.444443739950657 A2.1587302684783936,2.1587302684783936 0 0 0 21.50567054748535,2.2857139483094215 zm0,17.26984214782715 H2.0770976543426514 V4.444443739950657 H21.50567054748535 z" class="" id="svg_4"/><polygon points="6.208163261413574,8.493876494467258 3.7346935272216797,8.493876494467258 3.7346935272216797,10.142855681478977 7.857142448425293,10.142855681478977 7.857142448425293,6.020406760275364 6.208163261413574,6.020406760275364 6.208163261413574,8.493876494467258 " id="svg_2" class=""/><polygon points="15.673471413552761,17.918365478515625 17.355102501809597,17.918365478515625 17.355102501809597,15.395917892456055 19.877553902566433,15.395917892456055 19.877553902566433,13.714284896850586 15.673471413552761,13.714284896850586 15.673471413552761,17.918365478515625 " id="svg_3" class=""/></g></svg>
