<?xml version="1.0" encoding="utf-8"?>
<!-- Generator: Adobe Illustrator 21.0.0, SVG Export Plug-In . SVG Version: 6.00 Build 0)  -->
<svg version="1.1" height="24" width="24" id="Layer_1" xmlns="http://www.w3.org/2000/svg"  x="0px" y="0px"
	 viewBox="0 0 85 85" style="enable-background:new 0 0 85 85;" xml:space="preserve">
<style type="text/css">
	.st0{fill:#03476e;}
</style>
<path class="st0" d="M42.5,0C19,0,0,19,0,42.5S19,85,42.5,85S85,66,85,42.5S66,0,42.5,0z M42.3,66.3c0,0-2,1.3-3.3,1.3
	c-0.1,0.1-0.2,0.1-0.2,0.1l0-0.1c-0.3,0-0.6-0.1-0.9-0.1l-0.4-0.1c-2.4-0.6-3.6-2.9-3-5.3l3.3-13.2l1.5-6c1.4-5.5-4.4,1.2-5.5-1.4
	c-0.8-1.7,4.5-5.2,8.3-7.9c0,0,2-1.3,3.3-1.3c0.1-0.1,0.2-0.1,0.2-0.1l0,0.1c0.3,0,0.6,0.1,0.9,0.1l0.4,0.1c2.4,0.6,3.8,3,3.2,5.3
	l-3.3,13.2l-1.5,6c-1.4,5.5,4.3-1.2,5.4,1.4C51.5,60.1,46.1,63.6,42.3,66.3z M50.6,25c-0.8,3.3-4.2,5.3-7.4,4.5
	c-3.3-0.8-5.3-4.2-4.5-7.4s4.2-5.3,7.4-4.5C49.4,18.3,51.4,21.7,50.6,25z"/>
</svg>
