<?xml version="1.0" encoding="utf-8"?>
<!-- Generator: Adobe Illustrator 21.0.0, SVG Export Plug-In . SVG Version: 6.00 Build 0)  -->
<svg version="1.1" id="Calque_2" xmlns="http://www.w3.org/2000/svg"  x="0px" y="0px"
	 viewBox="0 0 32 32" style="enable-background:new 0 0 32 32;" xml:space="preserve">
<style type="text/css">
	.st0{fill:#007BA7;}
</style>
<path class="st0" d="M7.9,7.5L7.9,7.5C7.2,7.5,6.6,7,6.6,6.3V1.5c0-0.7,0.6-1.2,1.2-1.2h0c0.7,0,1.2,0.6,1.2,1.2v4.8
	C9.1,7,8.5,7.5,7.9,7.5z"/>
<path class="st0" d="M26.3,3.1v3.8c0,1.1-0.9,2-2,2h-0.4c-1.1,0-2-0.9-2-2V6.6c0-0.1,0-0.2,0-0.2V3.1H10v3.8c0,1.1-0.9,2-2,2H7.7
	c-1.1,0-2-0.9-2-2V3.1H0V32h32V3.1H26.3z M29,29H3V10.1h26V29z"/>
<path class="st0" d="M24.1,7.6L24.1,7.6c-0.7,0-1.2-0.6-1.2-1.2V1.5c0-0.7,0.6-1.2,1.2-1.2h0c0.7,0,1.2,0.6,1.2,1.2v4.8
	C25.4,7,24.8,7.6,24.1,7.6z"/>
<rect x="9.8" y="18.3" class="st0" width="3.1" height="3.1"/>
<rect x="5.3" y="18.3" class="st0" width="3.1" height="3.1"/>
<rect x="14.4" y="18.3" class="st0" width="3.1" height="3.1"/>
<rect x="18.9" y="18.3" class="st0" width="3.1" height="3.1"/>
<rect x="23.5" y="18.3" class="st0" width="3.1" height="3.1"/>
<rect x="23.5" y="13.5" class="st0" width="3.1" height="3.1"/>
<rect x="18.9" y="13.5" class="st0" width="3.1" height="3.1"/>
<rect x="14.4" y="13.5" class="st0" width="3.1" height="3.1"/>
<rect x="9.8" y="13.5" class="st0" width="3.1" height="3.1"/>
<rect x="5.3" y="22.7" class="st0" width="3.1" height="3.1"/>
<rect x="9.8" y="22.7" class="st0" width="3.1" height="3.1"/>
<rect x="14.4" y="22.7" class="st0" width="3.1" height="3.1"/>
<rect x="18.9" y="22.7" class="st0" width="3.1" height="3.1"/>
</svg>
