<?xml version="1.0" encoding="utf-8"?>
<!-- Svg Vector Icons : http://www.onlinewebfonts.com/icon -->
<!DOCTYPE svg PUBLIC "-//W3C//DTD SVG 1.1//EN" "http://www.w3.org/Graphics/SVG/1.1/DTD/svg11.dtd">
<svg version="1.1" xmlns="http://www.w3.org/2000/svg" xmlns:xlink="http://www.w3.org/1999/xlink" x="0px" y="0px" viewBox="0 0 1000 1000" enable-background="new 0 0 1000 1000" xml:space="preserve">
<metadata> Svg Vector Icons : http://www.onlinewebfonts.com/icon </metadata>
<g><g><path d="M879,360.5h-23.5V247c0-0.7-0.1-1.4-0.2-2.1c0-4.5-1.5-8.9-4.6-12.4L661.8,16.6c-0.1-0.1-0.1-0.1-0.2-0.1c-1.1-1.3-2.4-2.3-3.8-3.2c-0.4-0.3-0.8-0.5-1.3-0.8c-1.2-0.7-2.5-1.2-3.8-1.6c-0.4-0.1-0.7-0.2-1-0.3c-1.4-0.3-2.9-0.5-4.4-0.5H182.9c-21.2,0-38.4,17.2-38.4,38.4v312.1H121c-30.3,0-54.9,24.6-54.9,54.9v285.6c0,30.3,24.6,54.9,54.9,54.9h23.5v195.5c0,21.2,17.2,38.4,38.4,38.4h634.1c21.2,0,38.4-17.2,38.4-38.4V756H879c30.3,0,54.9-24.6,54.9-54.9V415.5C933.9,385.1,909.3,360.5,879,360.5z M182.9,48.4h445.1v196.6c0,10.6,8.6,19.2,19.2,19.2h169.8v96.3H182.9V48.4z M648.3,539.3c0,49.4-18,83.5-42.9,104.6c-27.2,22.6-68.6,33.3-119.2,33.3c-30.3,0-51.7-1.9-66.3-3.8V419.7c21.5-3.4,49.4-5.4,79-5.4c49.1,0,80.9,8.8,105.8,27.6C631.5,461.9,648.3,493.7,648.3,539.3z M133.2,547.3c0-77.4,49.4-135.3,125.7-135.3c79.3,0,122.6,59.4,122.6,130.7c0,84.7-51.4,136.1-126.9,136.1C178,678.8,133.2,620.9,133.2,547.3z M817.1,941.2H182.9V756h634.1L817.1,941.2L817.1,941.2z M750,678.5c-29.5,0-58.6-7.7-73.2-15.8l11.9-48.3c15.7,8.1,39.9,16.1,64.8,16.1c26.8,0,41-11.1,41-28c0-16.1-12.3-25.3-43.3-36.4c-42.9-14.9-70.9-38.7-70.9-76.3c0-44.1,36.8-77.8,97.7-77.8c29.1,0,50.6,6.1,65.9,13l-13,47.1c-10.4-5-28.7-12.3-54.1-12.3c-25.3,0-37.6,11.5-37.6,24.9c0,16.5,14.6,23.7,47.9,36.4c45.6,16.9,67.1,40.6,67.1,77.1C854.2,641.6,820.9,678.5,750,678.5z"/><path d="M505,459.2c-13,0-21.5,1.1-26.5,2.3v169c5,1.2,13,1.2,20.3,1.2c52.9,0.4,87.4-28.7,87.4-90.5C586.6,487.6,555.2,459.2,505,459.2z"/><path d="M319.8,544.7c0-46.4-22.2-86.3-62.5-86.3c-39.5,0-62.5,37.6-62.5,87.8c0,50.6,23.8,86.2,62.9,86.2C297.2,632.4,319.8,594.9,319.8,544.7z"/></g><g></g><g></g><g></g><g></g><g></g><g></g><g></g><g></g><g></g><g></g><g></g><g></g><g></g><g></g><g></g></g>
</svg>